{
	"asset":{
		"generator":"Khronos glTF Blender I/O v4.4.55",
		"version":"2.0"
	},
	"scene":0,
	"scenes":[
		{
			"name":"Scene",
			"nodes":[
				0,
				1,
				2,
				3,
				4,
				5,
				6,
				7,
				8,
				9,
				10,
				11,
				12,
				13,
				14,
				15,
				16,
				17,
				18,
				19,
				20,
				21,
				22,
				23,
				24,
				25,
				26,
				27,
				28,
				29,
				30,
				31,
				32,
				33,
				34,
				35,
				36,
				37,
				38,
				39,
				40,
				41,
				42,
				43,
				44,
				45,
				46,
				47,
				48,
				49,
				50
			]
		}
	],
	"nodes":[
		{
			"mesh":0,
			"name":"graphicsJoined",
			"scale":[
				0.8485743403434753,
				0.8485743403434753,
				0.8485743403434753
			],
			"translation":[
				1.1432299613952637,
				1.892929196357727,
				2.292691946029663
			]
		},
		{
			"mesh":1,
			"name":"jesseZhouJoined",
			"rotation":[
				0,
				-0.7071068286895752,
				0,
				0.7071067094802856
			],
			"scale":[
				0.33289679884910583,
				0.3328968286514282,
				0.33289679884910583
			],
			"translation":[
				-4.778377056121826,
				0.17205241322517395,
				-0.05644119903445244
			]
		},
		{
			"mesh":2,
			"name":"machinesJoined",
			"translation":[
				1.0434399843215942,
				8.609701156616211,
				0.15572935342788696
			]
		},
		{
			"mesh":3,
			"name":"ramenShopJoined",
			"translation":[
				-2.663672685623169,
				7.052237510681152,
				-3.2293496131896973
			]
		},
		{
			"mesh":4,
			"name":"miscJoined",
			"translation":[
				-0.7428503036499023,
				4.54684591293335,
				-6.132484436035156
			]
		},
		{
			"mesh":5,
			"name":"floor",
			"translation":[
				-0.0008952409843914211,
				0.10401662439107895,
				-1.1935853958129883
			]
		},
		{
			"mesh":6,
			"name":"easelFrontGraphic",
			"rotation":[
				-0.059777747839689255,
				-0.8372681736946106,
				-0.09347870200872421,
				0.5354161262512207
			],
			"translation":[
				-2.5040383338928223,
				1.6893832683563232,
				2.13370943069458
			]
		},
		{
			"mesh":7,
			"name":"chinese",
			"translation":[
				-1.566514015197754,
				2.390077590942383,
				-2.405534267425537
			]
		},
		{
			"mesh":8,
			"name":"neonPink",
			"rotation":[
				0,
				-0.7071068286895752,
				0,
				0.7071067094802856
			],
			"translation":[
				-2.1703734397888184,
				4.629756927490234,
				-0.9509339928627014
			]
		},
		{
			"mesh":9,
			"name":"neonYellow",
			"rotation":[
				0.08486464619636536,
				-0.0848645567893982,
				0.7019957900047302,
				0.7019957900047302
			],
			"translation":[
				-2.043316125869751,
				6.045316696166992,
				0.2117636799812317
			]
		},
		{
			"mesh":10,
			"name":"neonBlue",
			"rotation":[
				0,
				-0.7071068286895752,
				0,
				0.7071067094802856
			],
			"translation":[
				-2.650430917739868,
				5.272509574890137,
				-3.228490114212036
			]
		},
		{
			"mesh":11,
			"name":"lampLights",
			"translation":[
				-0.10396274924278259,
				2.7971889972686768,
				-0.07095813751220703
			]
		},
		{
			"mesh":12,
			"name":"neonGreen",
			"rotation":[
				0.7071065902709961,
				0,
				0,
				0.7071069478988647
			],
			"translation":[
				-2.6425814628601074,
				5.286855697631836,
				-3.1257483959198
			]
		},
		{
			"mesh":13,
			"name":"storageLight",
			"translation":[
				1.2697912454605103,
				5.25068473815918,
				-1.5725691318511963
			]
		},
		{
			"mesh":14,
			"name":"portalLight",
			"translation":[
				-0.1304895132780075,
				5.469351291656494,
				-0.9246079921722412
			]
		},
		{
			"mesh":15,
			"name":"bigScreen",
			"rotation":[
				0.70710688829422,
				0,
				0,
				0.7071066498756409
			],
			"translation":[
				0.5306367874145508,
				6.816488742828369,
				0.32012587785720825
			]
		},
		{
			"mesh":16,
			"name":"smallScreen1",
			"rotation":[
				0.70710688829422,
				0,
				0,
				0.7071066498756409
			],
			"translation":[
				0.6273705959320068,
				5.115560531616211,
				1.0304360389709473
			]
		},
		{
			"mesh":17,
			"name":"smallScreen2",
			"rotation":[
				0.70710688829422,
				0,
				0,
				0.7071066498756409
			],
			"translation":[
				-0.3272233009338379,
				5.115560531616211,
				1.0304360389709473
			]
		},
		{
			"mesh":18,
			"name":"smallScreen3",
			"rotation":[
				0.70710688829422,
				0,
				0,
				0.7071066498756409
			],
			"translation":[
				-1.2818171977996826,
				5.115560531616211,
				1.0304360389709473
			]
		},
		{
			"mesh":19,
			"name":"smallScreen4",
			"rotation":[
				0.70710688829422,
				0,
				0,
				0.7071066498756409
			],
			"translation":[
				-1.2818171977996826,
				6.075119972229004,
				1.0304360389709473
			]
		},
		{
			"mesh":20,
			"name":"tallScreen",
			"rotation":[
				0.70710688829422,
				0,
				0,
				0.7071066498756409
			],
			"translation":[
				-1.2818171977996826,
				7.312870025634766,
				1.0304360389709473
			]
		},
		{
			"mesh":21,
			"name":"smallScreen5",
			"rotation":[
				0.70710688829422,
				0,
				0,
				0.7071066498756409
			],
			"translation":[
				-1.2818171977996826,
				8.557753562927246,
				1.0304360389709473
			]
		},
		{
			"mesh":22,
			"name":"sideScreen",
			"rotation":[
				0.5,
				0.49999988079071045,
				0.5,
				0.5000001192092896
			],
			"translation":[
				0.03252500295639038,
				4.073424339294434,
				1.4189462661743164
			]
		},
		{
			"mesh":23,
			"name":"tvScreen",
			"rotation":[
				0,
				0,
				0.7071065902709961,
				0.7071069478988647
			],
			"translation":[
				-1.4048629999160767,
				6.2909393310546875,
				-1.8434031009674072
			]
		},
		{
			"mesh":24,
			"name":"littleTVScreen",
			"rotation":[
				0,
				0,
				0.7071065902709961,
				0.7071069478988647
			],
			"translation":[
				-1.6413297653198242,
				5.289139747619629,
				-2.173813581466675
			]
		},
		{
			"mesh":25,
			"name":"blueLights",
			"translation":[
				-4.156416416168213,
				2.90547251701355,
				-5.268439292907715
			]
		},
		{
			"mesh":26,
			"name":"redLED",
			"translation":[
				-4.002440929412842,
				-0.21766376495361328,
				-5.048274517059326
			]
		},
		{
			"mesh":27,
			"name":"whiteButton",
			"translation":[
				-4.156416416168213,
				2.90547251701355,
				-5.268439292907715
			]
		},
		{
			"mesh":28,
			"name":"yellowRightLight",
			"translation":[
				-4.002440929412842,
				-0.21766376495361328,
				-5.048274517059326
			]
		},
		{
			"mesh":29,
			"name":"creditsOrange",
			"scale":[
				1.4167379140853882,
				1.4167379140853882,
				1.4167379140853882
			],
			"translation":[
				-4.129251003265381,
				0.7267082929611206,
				-5.01772403717041
			]
		},
		{
			"mesh":30,
			"name":"greenLED",
			"translation":[
				-4.169402599334717,
				2.0012612342834473,
				-5.387844562530518
			]
		},
		{
			"mesh":31,
			"name":"greenSignSquare",
			"translation":[
				-4.129448890686035,
				2.2674596309661865,
				-5.329080581665039
			]
		},
		{
			"mesh":32,
			"name":"jZhouPink",
			"translation":[
				-4.082852840423584,
				2.6287317276000977,
				-4.746816635131836
			]
		},
		{
			"mesh":33,
			"name":"poleLight",
			"translation":[
				-4.00212287902832,
				4.617471694946289,
				-6.14261531829834
			]
		},
		{
			"mesh":34,
			"name":"projectsRed",
			"rotation":[
				-0.0013805904891341925,
				0,
				0,
				1
			],
			"scale":[
				1.1605660915374756,
				1.1605660915374756,
				1.1605660915374756
			],
			"translation":[
				-4.13352108001709,
				3.3967068195343018,
				-4.988886833190918
			]
		},
		{
			"mesh":35,
			"name":"aboutMeBlack",
			"translation":[
				-4.156416416168213,
				2.72585391998291,
				-5.268439292907715
			]
		},
		{
			"mesh":36,
			"name":"aboutMeBlue",
			"translation":[
				-4.156416416168213,
				2.72585391998291,
				-5.268439292907715
			]
		},
		{
			"mesh":37,
			"name":"articlesWhite",
			"rotation":[
				-0.0013805902563035488,
				0,
				0,
				1
			],
			"scale":[
				1.2463432550430298,
				1.2463433742523193,
				1.2463433742523193
			],
			"translation":[
				-4.124503135681152,
				1.756263017654419,
				-5.139444828033447
			]
		},
		{
			"mesh":38,
			"name":"articlesRed",
			"rotation":[
				-0.0013805902563035488,
				0,
				0,
				1
			],
			"scale":[
				1.2463432550430298,
				1.2463433742523193,
				1.2463433742523193
			],
			"translation":[
				-4.124503135681152,
				1.7714554071426392,
				-4.993087291717529
			]
		},
		{
			"mesh":39,
			"name":"creditsBlack",
			"scale":[
				1.4167379140853882,
				1.4167379140853882,
				1.4167379140853882
			],
			"translation":[
				-4.129251003265381,
				0.7314565181732178,
				-5.168529510498047
			]
		},
		{
			"mesh":40,
			"name":"projectsWhite",
			"rotation":[
				-0.0013805904891341925,
				0,
				0,
				1
			],
			"scale":[
				1.1605660915374756,
				1.1605660915374756,
				1.1605660915374756
			],
			"translation":[
				-4.13352108001709,
				3.3840625286102295,
				-5.198082447052002
			]
		},
		{
			"mesh":41,
			"name":"vendingMachineScreen",
			"scale":[
				0.8485743403434753,
				0.8485743403434753,
				0.8485743403434753
			],
			"translation":[
				1.1432299613952637,
				1.892929196357727,
				2.292691946029663
			]
		},
		{
			"mesh":42,
			"name":"vendingMachineLight",
			"scale":[
				0.8485743403434753,
				0.8485743403434753,
				0.8485743403434753
			],
			"translation":[
				1.1432299613952637,
				1.892929196357727,
				2.292691946029663
			]
		},
		{
			"mesh":43,
			"name":"arcadeRim",
			"rotation":[
				0,
				1,
				0,
				7.549790126404332e-08
			],
			"translation":[
				-0.5729950070381165,
				0.16527000069618225,
				2.002558469772339
			]
		},
		{
			"mesh":44,
			"name":"arcadeToken",
			"translation":[
				-0.5358560085296631,
				0.5844687223434448,
				2.533397674560547
			]
		},
		{
			"mesh":45,
			"name":"arcadeScreen",
			"rotation":[
				0.70710688829422,
				0,
				0,
				0.7071066498756409
			],
			"translation":[
				-0.6518666744232178,
				2.0974814891815186,
				2.8853790760040283
			]
		},
		{
			"mesh":46,
			"name":"dish",
			"rotation":[
				0,
				-0.8886334300041199,
				0,
				0.4586182236671448
			],
			"translation":[
				1.8159509897232056,
				5.091039657592773,
				1.1201092004776
			]
		},
		{
			"mesh":47,
			"name":"dishStand",
			"rotation":[
				0,
				-0.8886334300041199,
				0,
				0.4586182236671448
			],
			"translation":[
				1.5579190254211426,
				4.805765151977539,
				0.8826513886451721
			]
		},
		{
			"mesh":48,
			"name":"fan1",
			"rotation":[
				0.3068021535873413,
				0.6370812654495239,
				-0.3068021535873413,
				0.6370811462402344
			],
			"translation":[
				1.5049197673797607,
				3.748466968536377,
				-3.562695264816284
			]
		},
		{
			"mesh":49,
			"name":"fan2",
			"rotation":[
				0.3068021535873413,
				0.6370812654495239,
				-0.3068021535873413,
				0.6370811462402344
			],
			"translation":[
				0.3176230788230896,
				3.748466968536377,
				-3.562695264816284
			]
		},
		{
			"mesh":50,
			"name":"jZhouBlack",
			"rotation":[
				0.5,
				-0.5,
				0.5,
				0.5
			],
			"translation":[
				-4.12293004989624,
				2.3601877689361572,
				-4.901256084442139
			]
		}
	],
	"materials":[
		{
			"doubleSided":true,
			"name":"Material.001",
			"pbrMetallicRoughness":{
				"baseColorFactor":[
					0.04569397494196892,
					0.04569397494196892,
					0.04569397494196892,
					1
				],
				"roughnessFactor":0
			}
		}
	],
	"meshes":[
		{
			"name":"Cube.031",
			"primitives":[
				{
					"attributes":{
						"POSITION":0,
						"NORMAL":1,
						"TEXCOORD_0":2
					},
					"indices":3
				}
			]
		},
		{
			"name":"Text.002",
			"primitives":[
				{
					"attributes":{
						"POSITION":4,
						"NORMAL":5,
						"TEXCOORD_0":6
					},
					"indices":7
				}
			]
		},
		{
			"name":"Cube.032",
			"primitives":[
				{
					"attributes":{
						"POSITION":8,
						"NORMAL":9,
						"TEXCOORD_0":10
					},
					"indices":11
				}
			]
		},
		{
			"name":"Cube.033",
			"primitives":[
				{
					"attributes":{
						"POSITION":12,
						"NORMAL":13,
						"TEXCOORD_0":14
					},
					"indices":15
				}
			]
		},
		{
			"name":"Sphere.002",
			"primitives":[
				{
					"attributes":{
						"POSITION":16,
						"NORMAL":17,
						"TEXCOORD_0":18
					},
					"indices":19
				}
			]
		},
		{
			"name":"Plane.003",
			"primitives":[
				{
					"attributes":{
						"POSITION":20,
						"NORMAL":21,
						"TEXCOORD_0":22
					},
					"indices":23
				}
			]
		},
		{
			"name":"Cube.034",
			"primitives":[
				{
					"attributes":{
						"POSITION":24,
						"NORMAL":25,
						"TEXCOORD_0":26
					},
					"indices":23
				}
			]
		},
		{
			"name":"Cube.035",
			"primitives":[
				{
					"attributes":{
						"POSITION":27,
						"NORMAL":28,
						"TEXCOORD_0":29
					},
					"indices":30
				}
			]
		},
		{
			"name":"NurbsPath.003",
			"primitives":[
				{
					"attributes":{
						"POSITION":31,
						"NORMAL":32,
						"TEXCOORD_0":33
					},
					"indices":34
				}
			]
		},
		{
			"name":"BezierCurve.002",
			"primitives":[
				{
					"attributes":{
						"POSITION":35,
						"NORMAL":36,
						"TEXCOORD_0":37
					},
					"indices":38
				}
			]
		},
		{
			"name":"NurbsPath.004",
			"primitives":[
				{
					"attributes":{
						"POSITION":39,
						"NORMAL":40,
						"TEXCOORD_0":41
					},
					"indices":42
				}
			]
		},
		{
			"name":"Cylinder.007",
			"primitives":[
				{
					"attributes":{
						"POSITION":43,
						"NORMAL":44,
						"TEXCOORD_0":45
					},
					"indices":46
				}
			]
		},
		{
			"name":"Text.004",
			"primitives":[
				{
					"attributes":{
						"POSITION":47,
						"NORMAL":48,
						"TEXCOORD_0":49
					},
					"indices":50
				}
			]
		},
		{
			"name":"Cube.036",
			"primitives":[
				{
					"attributes":{
						"POSITION":51,
						"NORMAL":52,
						"TEXCOORD_0":53
					},
					"indices":54
				}
			]
		},
		{
			"name":"Cylinder.008",
			"primitives":[
				{
					"attributes":{
						"POSITION":55,
						"NORMAL":56,
						"TEXCOORD_0":57
					},
					"indices":58
				}
			]
		},
		{
			"name":"Plane.004",
			"primitives":[
				{
					"attributes":{
						"POSITION":59,
						"NORMAL":60,
						"TEXCOORD_0":61
					},
					"indices":23
				}
			]
		},
		{
			"name":"Plane.005",
			"primitives":[
				{
					"attributes":{
						"POSITION":62,
						"NORMAL":63,
						"TEXCOORD_0":64
					},
					"indices":65
				}
			]
		},
		{
			"name":"Plane.006",
			"primitives":[
				{
					"attributes":{
						"POSITION":66,
						"NORMAL":67,
						"TEXCOORD_0":68
					},
					"indices":65
				}
			]
		},
		{
			"name":"Plane.007",
			"primitives":[
				{
					"attributes":{
						"POSITION":69,
						"NORMAL":70,
						"TEXCOORD_0":71
					},
					"indices":65
				}
			]
		},
		{
			"name":"Plane.008",
			"primitives":[
				{
					"attributes":{
						"POSITION":72,
						"NORMAL":73,
						"TEXCOORD_0":74
					},
					"indices":23
				}
			]
		},
		{
			"name":"Plane.009",
			"primitives":[
				{
					"attributes":{
						"POSITION":75,
						"NORMAL":76,
						"TEXCOORD_0":77
					},
					"indices":23
				}
			]
		},
		{
			"name":"Plane.010",
			"primitives":[
				{
					"attributes":{
						"POSITION":78,
						"NORMAL":79,
						"TEXCOORD_0":80
					},
					"indices":23
				}
			]
		},
		{
			"name":"Plane.011",
			"primitives":[
				{
					"attributes":{
						"POSITION":81,
						"NORMAL":82,
						"TEXCOORD_0":83
					},
					"indices":23
				}
			]
		},
		{
			"name":"Plane.012",
			"primitives":[
				{
					"attributes":{
						"POSITION":84,
						"NORMAL":85,
						"TEXCOORD_0":86
					},
					"indices":65
				}
			]
		},
		{
			"name":"Plane.013",
			"primitives":[
				{
					"attributes":{
						"POSITION":87,
						"NORMAL":88,
						"TEXCOORD_0":89
					},
					"indices":23
				}
			]
		},
		{
			"name":"Cube.037",
			"primitives":[
				{
					"attributes":{
						"POSITION":90,
						"NORMAL":91,
						"TEXCOORD_0":92
					},
					"indices":93
				}
			]
		},
		{
			"name":"Cube.038",
			"primitives":[
				{
					"attributes":{
						"POSITION":94,
						"NORMAL":95,
						"TEXCOORD_0":96
					},
					"indices":97
				}
			]
		},
		{
			"name":"Cube.039",
			"primitives":[
				{
					"attributes":{
						"POSITION":98,
						"NORMAL":99,
						"TEXCOORD_0":100
					},
					"indices":101
				}
			]
		},
		{
			"name":"Cube.040",
			"primitives":[
				{
					"attributes":{
						"POSITION":102,
						"NORMAL":103,
						"TEXCOORD_0":104
					},
					"indices":105
				}
			]
		},
		{
			"name":"Cube.041",
			"primitives":[
				{
					"attributes":{
						"POSITION":106,
						"NORMAL":107,
						"TEXCOORD_0":108
					},
					"indices":109
				}
			]
		},
		{
			"name":"Cube.042",
			"primitives":[
				{
					"attributes":{
						"POSITION":110,
						"NORMAL":111,
						"TEXCOORD_0":112
					},
					"indices":97
				}
			]
		},
		{
			"name":"Cube.043",
			"primitives":[
				{
					"attributes":{
						"POSITION":113,
						"NORMAL":114,
						"TEXCOORD_0":115
					},
					"indices":116
				}
			]
		},
		{
			"name":"Cube.044",
			"primitives":[
				{
					"attributes":{
						"POSITION":117,
						"NORMAL":118,
						"TEXCOORD_0":119
					},
					"indices":120
				}
			]
		},
		{
			"name":"Sphere.004",
			"primitives":[
				{
					"attributes":{
						"POSITION":121,
						"NORMAL":122,
						"TEXCOORD_0":123
					},
					"indices":124
				}
			]
		},
		{
			"name":"Cube.045",
			"primitives":[
				{
					"attributes":{
						"POSITION":125,
						"NORMAL":126,
						"TEXCOORD_0":127
					},
					"indices":128
				}
			]
		},
		{
			"name":"Cube.046",
			"primitives":[
				{
					"attributes":{
						"POSITION":129,
						"NORMAL":130,
						"TEXCOORD_0":131
					},
					"indices":132
				}
			]
		},
		{
			"name":"Cube.047",
			"primitives":[
				{
					"attributes":{
						"POSITION":133,
						"NORMAL":134,
						"TEXCOORD_0":135
					},
					"indices":136
				}
			]
		},
		{
			"name":"Cube.048",
			"primitives":[
				{
					"attributes":{
						"POSITION":137,
						"NORMAL":138,
						"TEXCOORD_0":139
					},
					"indices":140
				}
			]
		},
		{
			"name":"Cube.049",
			"primitives":[
				{
					"attributes":{
						"POSITION":141,
						"NORMAL":142,
						"TEXCOORD_0":143
					},
					"indices":144
				}
			]
		},
		{
			"name":"Cube.050",
			"primitives":[
				{
					"attributes":{
						"POSITION":145,
						"NORMAL":146,
						"TEXCOORD_0":147
					},
					"indices":148
				}
			]
		},
		{
			"name":"Cube.051",
			"primitives":[
				{
					"attributes":{
						"POSITION":149,
						"NORMAL":150,
						"TEXCOORD_0":151
					},
					"indices":152
				}
			]
		},
		{
			"name":"Cube.053",
			"primitives":[
				{
					"attributes":{
						"POSITION":153,
						"NORMAL":154,
						"TEXCOORD_0":155
					},
					"indices":156
				}
			]
		},
		{
			"name":"Cube.054",
			"primitives":[
				{
					"attributes":{
						"POSITION":157,
						"NORMAL":158,
						"TEXCOORD_0":159
					},
					"indices":160
				}
			]
		},
		{
			"name":"Cube.055",
			"primitives":[
				{
					"attributes":{
						"POSITION":161,
						"NORMAL":162,
						"TEXCOORD_0":163
					},
					"indices":164
				}
			]
		},
		{
			"name":"Cube.056",
			"primitives":[
				{
					"attributes":{
						"POSITION":165,
						"NORMAL":166,
						"TEXCOORD_0":167
					},
					"indices":168
				}
			]
		},
		{
			"name":"Plane.015",
			"primitives":[
				{
					"attributes":{
						"POSITION":169,
						"NORMAL":170,
						"TEXCOORD_0":171
					},
					"indices":23
				}
			]
		},
		{
			"name":"Cylinder.009",
			"primitives":[
				{
					"attributes":{
						"POSITION":172,
						"NORMAL":173,
						"TEXCOORD_0":174
					},
					"indices":175
				}
			]
		},
		{
			"name":"Cylinder.010",
			"primitives":[
				{
					"attributes":{
						"POSITION":176,
						"NORMAL":177,
						"TEXCOORD_0":178
					},
					"indices":179
				}
			]
		},
		{
			"name":"Cylinder.011",
			"primitives":[
				{
					"attributes":{
						"POSITION":180,
						"NORMAL":181,
						"TEXCOORD_0":182
					},
					"indices":183
				}
			]
		},
		{
			"name":"Cylinder.012",
			"primitives":[
				{
					"attributes":{
						"POSITION":184,
						"NORMAL":185,
						"TEXCOORD_0":186
					},
					"indices":187
				}
			]
		},
		{
			"name":"Text",
			"primitives":[
				{
					"attributes":{
						"POSITION":188,
						"NORMAL":189,
						"TEXCOORD_0":190
					},
					"indices":191,
					"material":0
				}
			]
		}
	],
	"accessors":[
		{
			"bufferView":0,
			"componentType":5126,
			"count":66,
			"max":[
				0.9266045093536377,
				1.8934440612792969,
				0.911474347114563
			],
			"min":[
				-2.752434253692627,
				-2.0594475269317627,
				-1.0296238660812378
			],
			"type":"VEC3"
		},
		{
			"bufferView":1,
			"componentType":5126,
			"count":66,
			"type":"VEC3"
		},
		{
			"bufferView":2,
			"componentType":5126,
			"count":66,
			"type":"VEC2"
		},
		{
			"bufferView":3,
			"componentType":5123,
			"count":90,
			"type":"SCALAR"
		},
		{
			"bufferView":4,
			"componentType":5126,
			"count":24098,
			"max":[
				14.32677936553955,
				0.2024906724691391,
				2.741882085800171
			],
			"min":[
				-0.21391934156417847,
				0,
				-2.7611618041992188
			],
			"type":"VEC3"
		},
		{
			"bufferView":5,
			"componentType":5126,
			"count":24098,
			"type":"VEC3"
		},
		{
			"bufferView":6,
			"componentType":5126,
			"count":24098,
			"type":"VEC2"
		},
		{
			"bufferView":7,
			"componentType":5123,
			"count":46908,
			"type":"SCALAR"
		},
		{
			"bufferView":8,
			"componentType":5126,
			"count":32173,
			"max":[
				1.342176914215088,
				1.4678030014038086,
				1.6358342170715332
			],
			"min":[
				-3.1491141319274902,
				-8.562297821044922,
				-4.207252025604248
			],
			"type":"VEC3"
		},
		{
			"bufferView":9,
			"componentType":5126,
			"count":32173,
			"type":"VEC3"
		},
		{
			"bufferView":10,
			"componentType":5126,
			"count":32173,
			"type":"VEC2"
		},
		{
			"bufferView":11,
			"componentType":5123,
			"count":111384,
			"type":"SCALAR"
		},
		{
			"bufferView":12,
			"componentType":5126,
			"count":132637,
			"max":[
				4.988577842712402,
				0.1500377655029297,
				5.2487335205078125
			],
			"min":[
				-1.2241414785385132,
				-7.068613529205322,
				-0.8203442096710205
			],
			"type":"VEC3"
		},
		{
			"bufferView":13,
			"componentType":5126,
			"count":132637,
			"type":"VEC3"
		},
		{
			"bufferView":14,
			"componentType":5126,
			"count":132637,
			"type":"VEC2"
		},
		{
			"bufferView":15,
			"componentType":5125,
			"count":552270,
			"type":"SCALAR"
		},
		{
			"bufferView":16,
			"componentType":5126,
			"count":18666,
			"max":[
				3.01456356048584,
				2.8981847763061523,
				9.261346817016602
			],
			"min":[
				-3.713286876678467,
				-4.563262939453125,
				-0.29992803931236267
			],
			"type":"VEC3"
		},
		{
			"bufferView":17,
			"componentType":5126,
			"count":18666,
			"type":"VEC3"
		},
		{
			"bufferView":18,
			"componentType":5126,
			"count":18666,
			"type":"VEC2"
		},
		{
			"bufferView":19,
			"componentType":5123,
			"count":28989,
			"type":"SCALAR"
		},
		{
			"bufferView":20,
			"componentType":5126,
			"count":4,
			"max":[
				24.951061248779297,
				0,
				24.951061248779297
			],
			"min":[
				-24.951061248779297,
				0,
				-24.951061248779297
			],
			"type":"VEC3"
		},
		{
			"bufferView":21,
			"componentType":5126,
			"count":4,
			"type":"VEC3"
		},
		{
			"bufferView":22,
			"componentType":5126,
			"count":4,
			"type":"VEC2"
		},
		{
			"bufferView":23,
			"componentType":5123,
			"count":6,
			"type":"SCALAR"
		},
		{
			"bufferView":24,
			"componentType":5126,
			"count":4,
			"max":[
				0.3674704134464264,
				-0.04220843315124512,
				-0.009355518035590649
			],
			"min":[
				-0.36746057868003845,
				-1.2645814418792725,
				-0.009355518035590649
			],
			"type":"VEC3"
		},
		{
			"bufferView":25,
			"componentType":5126,
			"count":4,
			"type":"VEC3"
		},
		{
			"bufferView":26,
			"componentType":5126,
			"count":4,
			"type":"VEC2"
		},
		{
			"bufferView":27,
			"componentType":5126,
			"count":247,
			"max":[
				-0.10776211321353912,
				0.139001727104187,
				3.3484411239624023
			],
			"min":[
				-0.13419844210147858,
				-0.3594142198562622,
				-0.38523438572883606
			],
			"type":"VEC3"
		},
		{
			"bufferView":28,
			"componentType":5126,
			"count":247,
			"type":"VEC3"
		},
		{
			"bufferView":29,
			"componentType":5126,
			"count":247,
			"type":"VEC2"
		},
		{
			"bufferView":30,
			"componentType":5123,
			"count":417,
			"type":"SCALAR"
		},
		{
			"bufferView":31,
			"componentType":5126,
			"count":6242,
			"max":[
				2.955594301223755,
				1.9780687093734741,
				1.2064740657806396
			],
			"min":[
				-2.6970179080963135,
				-1.0871702432632446,
				0.11997736990451813
			],
			"type":"VEC3"
		},
		{
			"bufferView":32,
			"componentType":5126,
			"count":6242,
			"type":"VEC3"
		},
		{
			"bufferView":33,
			"componentType":5126,
			"count":6242,
			"type":"VEC2"
		},
		{
			"bufferView":34,
			"componentType":5123,
			"count":33810,
			"type":"SCALAR"
		},
		{
			"bufferView":35,
			"componentType":5126,
			"count":507,
			"max":[
				0.4217508137226105,
				0.32434046268463135,
				0.5303629636764526
			],
			"min":[
				-0.43373748660087585,
				0.2619398832321167,
				0.11491616070270538
			],
			"type":"VEC3"
		},
		{
			"bufferView":36,
			"componentType":5126,
			"count":507,
			"type":"VEC3"
		},
		{
			"bufferView":37,
			"componentType":5126,
			"count":507,
			"type":"VEC2"
		},
		{
			"bufferView":38,
			"componentType":5123,
			"count":2592,
			"type":"SCALAR"
		},
		{
			"bufferView":39,
			"componentType":5126,
			"count":16081,
			"max":[
				4.497109889984131,
				1.3839576244354248,
				0.8042744994163513
			],
			"min":[
				-0.42500966787338257,
				-1.628861427307129,
				-0.3764573931694031
			],
			"type":"VEC3"
		},
		{
			"bufferView":40,
			"componentType":5126,
			"count":16081,
			"type":"VEC3"
		},
		{
			"bufferView":41,
			"componentType":5126,
			"count":16081,
			"type":"VEC2"
		},
		{
			"bufferView":42,
			"componentType":5123,
			"count":87912,
			"type":"SCALAR"
		},
		{
			"bufferView":43,
			"componentType":5126,
			"count":280,
			"max":[
				0.2421095371246338,
				-0.20604971051216125,
				0.2981712818145752
			],
			"min":[
				-2.9069626331329346,
				-0.646416187286377,
				-2.107217788696289
			],
			"type":"VEC3"
		},
		{
			"bufferView":44,
			"componentType":5126,
			"count":280,
			"type":"VEC3"
		},
		{
			"bufferView":45,
			"componentType":5126,
			"count":280,
			"type":"VEC2"
		},
		{
			"bufferView":46,
			"componentType":5123,
			"count":360,
			"type":"SCALAR"
		},
		{
			"bufferView":47,
			"componentType":5126,
			"count":2721,
			"max":[
				-0.1566930115222931,
				-0.26632338762283325,
				1.2401742935180664
			],
			"min":[
				-0.5931199193000793,
				-0.39708518981933594,
				-1.2364387512207031
			],
			"type":"VEC3"
		},
		{
			"bufferView":48,
			"componentType":5126,
			"count":2721,
			"type":"VEC3"
		},
		{
			"bufferView":49,
			"componentType":5126,
			"count":2721,
			"type":"VEC2"
		},
		{
			"bufferView":50,
			"componentType":5123,
			"count":14544,
			"type":"SCALAR"
		},
		{
			"bufferView":51,
			"componentType":5126,
			"count":280,
			"max":[
				0.5871164202690125,
				0.05210524797439575,
				1.2415237426757812
			],
			"min":[
				-0.11478053778409958,
				-0.649372935295105,
				-0.4737475514411926
			],
			"type":"VEC3"
		},
		{
			"bufferView":52,
			"componentType":5126,
			"count":280,
			"type":"VEC3"
		},
		{
			"bufferView":53,
			"componentType":5126,
			"count":280,
			"type":"VEC2"
		},
		{
			"bufferView":54,
			"componentType":5123,
			"count":360,
			"type":"SCALAR"
		},
		{
			"bufferView":55,
			"componentType":5126,
			"count":440,
			"max":[
				0.6293963193893433,
				-0.3720950484275818,
				0.5923239588737488
			],
			"min":[
				-0.5860373973846436,
				-0.5275177359580994,
				-0.6254139542579651
			],
			"type":"VEC3"
		},
		{
			"bufferView":56,
			"componentType":5126,
			"count":440,
			"type":"VEC3"
		},
		{
			"bufferView":57,
			"componentType":5126,
			"count":440,
			"type":"VEC2"
		},
		{
			"bufferView":58,
			"componentType":5123,
			"count":588,
			"type":"SCALAR"
		},
		{
			"bufferView":59,
			"componentType":5126,
			"count":4,
			"max":[
				1.6293396949768066,
				0.23463144898414612,
				0.9069098830223083
			],
			"min":[
				-1.3168997764587402,
				0.19219034910202026,
				-0.9069074988365173
			],
			"type":"VEC3"
		},
		{
			"bufferView":60,
			"componentType":5126,
			"count":4,
			"type":"VEC3"
		},
		{
			"bufferView":61,
			"componentType":5126,
			"count":4,
			"type":"VEC2"
		},
		{
			"bufferView":62,
			"componentType":5126,
			"count":6,
			"max":[
				0.5291475057601929,
				0.28215670585632324,
				0.3330114781856537
			],
			"min":[
				-0.24956122040748596,
				0.25629955530166626,
				-0.33299997448921204
			],
			"type":"VEC3"
		},
		{
			"bufferView":63,
			"componentType":5126,
			"count":6,
			"type":"VEC3"
		},
		{
			"bufferView":64,
			"componentType":5126,
			"count":6,
			"type":"VEC2"
		},
		{
			"bufferView":65,
			"componentType":5123,
			"count":6,
			"type":"SCALAR"
		},
		{
			"bufferView":66,
			"componentType":5126,
			"count":6,
			"max":[
				0.37823107838630676,
				0.2821534276008606,
				0.3330098092556
			],
			"min":[
				-0.39610984921455383,
				0.25629952549934387,
				-0.33299997448921204
			],
			"type":"VEC3"
		},
		{
			"bufferView":67,
			"componentType":5126,
			"count":6,
			"type":"VEC3"
		},
		{
			"bufferView":68,
			"componentType":5126,
			"count":6,
			"type":"VEC2"
		},
		{
			"bufferView":69,
			"componentType":5126,
			"count":6,
			"max":[
				0.23353004455566406,
				0.2821752727031708,
				0.33301404118537903
			],
			"min":[
				-0.5457377433776855,
				0.25629955530166626,
				-0.33299997448921204
			],
			"type":"VEC3"
		},
		{
			"bufferView":70,
			"componentType":5126,
			"count":6,
			"type":"VEC3"
		},
		{
			"bufferView":71,
			"componentType":5126,
			"count":6,
			"type":"VEC2"
		},
		{
			"bufferView":72,
			"componentType":5126,
			"count":4,
			"max":[
				0.2190963625907898,
				0.3187876343727112,
				0.33300408720970154
			],
			"min":[
				-0.5733463764190674,
				0.2934902310371399,
				-0.33299997448921204
			],
			"type":"VEC3"
		},
		{
			"bufferView":73,
			"componentType":5126,
			"count":4,
			"type":"VEC3"
		},
		{
			"bufferView":74,
			"componentType":5126,
			"count":4,
			"type":"VEC2"
		},
		{
			"bufferView":75,
			"componentType":5126,
			"count":4,
			"max":[
				0.20475834608078003,
				0.3723379671573639,
				0.5920000076293945
			],
			"min":[
				-0.6136997938156128,
				0.3304213583469391,
				-0.5920000076293945
			],
			"type":"VEC3"
		},
		{
			"bufferView":76,
			"componentType":5126,
			"count":4,
			"type":"VEC3"
		},
		{
			"bufferView":77,
			"componentType":5126,
			"count":4,
			"type":"VEC2"
		},
		{
			"bufferView":78,
			"componentType":5126,
			"count":4,
			"max":[
				0.18439751863479614,
				0.4036628007888794,
				0.33299729228019714
			],
			"min":[
				-0.6373401284217834,
				0.38289740681648254,
				-0.33299997448921204
			],
			"type":"VEC3"
		},
		{
			"bufferView":79,
			"componentType":5126,
			"count":4,
			"type":"VEC3"
		},
		{
			"bufferView":80,
			"componentType":5126,
			"count":4,
			"type":"VEC2"
		},
		{
			"bufferView":81,
			"componentType":5126,
			"count":4,
			"max":[
				0.5368070006370544,
				0.2928425669670105,
				2.1385111808776855
			],
			"min":[
				-0.5369053483009338,
				0.24409575760364532,
				-2.0647454261779785
			],
			"type":"VEC3"
		},
		{
			"bufferView":82,
			"componentType":5126,
			"count":4,
			"type":"VEC3"
		},
		{
			"bufferView":83,
			"componentType":5126,
			"count":4,
			"type":"VEC2"
		},
		{
			"bufferView":84,
			"componentType":5126,
			"count":6,
			"max":[
				0.5049959421157837,
				0.21365034580230713,
				0.9251455068588257
			],
			"min":[
				-0.505000114440918,
				0.1892935335636139,
				-1.2917307615280151
			],
			"type":"VEC3"
		},
		{
			"bufferView":85,
			"componentType":5126,
			"count":6,
			"type":"VEC3"
		},
		{
			"bufferView":86,
			"componentType":5126,
			"count":6,
			"type":"VEC2"
		},
		{
			"bufferView":87,
			"componentType":5126,
			"count":4,
			"max":[
				0.25358718633651733,
				0.21946755051612854,
				0.3379054665565491
			],
			"min":[
				-0.25361090898513794,
				0.20438309013843536,
				-0.7555839419364929
			],
			"type":"VEC3"
		},
		{
			"bufferView":88,
			"componentType":5126,
			"count":4,
			"type":"VEC3"
		},
		{
			"bufferView":89,
			"componentType":5126,
			"count":4,
			"type":"VEC2"
		},
		{
			"bufferView":90,
			"componentType":5126,
			"count":68,
			"max":[
				0.18383613228797913,
				4.3839497566223145,
				0.2499915212392807
			],
			"min":[
				-0.03581390529870987,
				-0.053197164088487625,
				-0.2307468205690384
			],
			"type":"VEC3"
		},
		{
			"bufferView":91,
			"componentType":5126,
			"count":68,
			"type":"VEC3"
		},
		{
			"bufferView":92,
			"componentType":5126,
			"count":68,
			"type":"VEC2"
		},
		{
			"bufferView":93,
			"componentType":5123,
			"count":96,
			"type":"SCALAR"
		},
		{
			"bufferView":94,
			"componentType":5126,
			"count":28,
			"max":[
				-0.07495089620351791,
				5.9257612228393555,
				0.39220720529556274
			],
			"min":[
				-0.19401398301124573,
				2.259200096130371,
				-0.752544105052948
			],
			"type":"VEC3"
		},
		{
			"bufferView":95,
			"componentType":5126,
			"count":28,
			"type":"VEC3"
		},
		{
			"bufferView":96,
			"componentType":5126,
			"count":28,
			"type":"VEC2"
		},
		{
			"bufferView":97,
			"componentType":5123,
			"count":42,
			"type":"SCALAR"
		},
		{
			"bufferView":98,
			"componentType":5126,
			"count":60,
			"max":[
				0.1013273149728775,
				1.098135232925415,
				0.6335001587867737
			],
			"min":[
				-0.0504734180867672,
				-0.02413526177406311,
				-0.19318361580371857
			],
			"type":"VEC3"
		},
		{
			"bufferView":99,
			"componentType":5126,
			"count":60,
			"type":"VEC3"
		},
		{
			"bufferView":100,
			"componentType":5126,
			"count":60,
			"type":"VEC2"
		},
		{
			"bufferView":101,
			"componentType":5123,
			"count":90,
			"type":"SCALAR"
		},
		{
			"bufferView":102,
			"componentType":5126,
			"count":24,
			"max":[
				-0.05267944931983948,
				4.2588372230529785,
				0.450908899307251
			],
			"min":[
				-0.05267944931983948,
				4.110837459564209,
				0.3015417754650116
			],
			"type":"VEC3"
		},
		{
			"bufferView":103,
			"componentType":5126,
			"count":24,
			"type":"VEC3"
		},
		{
			"bufferView":104,
			"componentType":5126,
			"count":24,
			"type":"VEC2"
		},
		{
			"bufferView":105,
			"componentType":5123,
			"count":24,
			"type":"SCALAR"
		},
		{
			"bufferView":106,
			"componentType":5126,
			"count":8,
			"max":[
				0,
				0.07032492756843567,
				0.4149937629699707
			],
			"min":[
				0,
				-0.07031142711639404,
				-0.4149937629699707
			],
			"type":"VEC3"
		},
		{
			"bufferView":107,
			"componentType":5126,
			"count":8,
			"type":"VEC3"
		},
		{
			"bufferView":108,
			"componentType":5126,
			"count":8,
			"type":"VEC2"
		},
		{
			"bufferView":109,
			"componentType":5123,
			"count":12,
			"type":"SCALAR"
		},
		{
			"bufferView":110,
			"componentType":5126,
			"count":28,
			"max":[
				0.09200070798397064,
				3.706835985183716,
				1.0920757055282593
			],
			"min":[
				-0.027052180841565132,
				-0.08780127763748169,
				-0.05259223282337189
			],
			"type":"VEC3"
		},
		{
			"bufferView":111,
			"componentType":5126,
			"count":28,
			"type":"VEC3"
		},
		{
			"bufferView":112,
			"componentType":5126,
			"count":28,
			"type":"VEC2"
		},
		{
			"bufferView":113,
			"componentType":5126,
			"count":8,
			"max":[
				0.00337795726954937,
				0.6119850873947144,
				0.24767175316810608
			],
			"min":[
				-0.0192582830786705,
				-0.24054250121116638,
				-0.24054250121116638
			],
			"type":"VEC3"
		},
		{
			"bufferView":114,
			"componentType":5126,
			"count":8,
			"type":"VEC3"
		},
		{
			"bufferView":115,
			"componentType":5126,
			"count":8,
			"type":"VEC2"
		},
		{
			"bufferView":116,
			"componentType":5123,
			"count":12,
			"type":"SCALAR"
		},
		{
			"bufferView":117,
			"componentType":5126,
			"count":313,
			"max":[
				-0.030075550079345703,
				0.3545956611633301,
				0.3545956611633301
			],
			"min":[
				-0.030075550079345703,
				-0.3545956611633301,
				-0.3545956611633301
			],
			"type":"VEC3"
		},
		{
			"bufferView":118,
			"componentType":5126,
			"count":313,
			"type":"VEC3"
		},
		{
			"bufferView":119,
			"componentType":5126,
			"count":313,
			"type":"VEC2"
		},
		{
			"bufferView":120,
			"componentType":5123,
			"count":438,
			"type":"SCALAR"
		},
		{
			"bufferView":121,
			"componentType":5126,
			"count":988,
			"max":[
				0.46043553948402405,
				0.4217698872089386,
				2.646855115890503
			],
			"min":[
				-0.4611659348011017,
				-0.4216879904270172,
				-0.46049144864082336
			],
			"type":"VEC3"
		},
		{
			"bufferView":122,
			"componentType":5126,
			"count":988,
			"type":"VEC3"
		},
		{
			"bufferView":123,
			"componentType":5126,
			"count":988,
			"type":"VEC2"
		},
		{
			"bufferView":124,
			"componentType":5123,
			"count":5184,
			"type":"SCALAR"
		},
		{
			"bufferView":125,
			"componentType":5126,
			"count":354,
			"max":[
				-4.842877388000488e-08,
				0.1563871204853058,
				0.7219653129577637
			],
			"min":[
				-4.842877388000488e-08,
				-0.1564072072505951,
				-0.7219653129577637
			],
			"type":"VEC3"
		},
		{
			"bufferView":126,
			"componentType":5126,
			"count":354,
			"type":"VEC3"
		},
		{
			"bufferView":127,
			"componentType":5126,
			"count":354,
			"type":"VEC2"
		},
		{
			"bufferView":128,
			"componentType":5123,
			"count":498,
			"type":"SCALAR"
		},
		{
			"bufferView":129,
			"componentType":5126,
			"count":259,
			"max":[
				0.02530287392437458,
				-1.5146121978759766,
				0.5781314373016357
			],
			"min":[
				0.02530260942876339,
				-1.62051522731781,
				-0.32646194100379944
			],
			"type":"VEC3"
		},
		{
			"bufferView":130,
			"componentType":5126,
			"count":259,
			"type":"VEC3"
		},
		{
			"bufferView":131,
			"componentType":5126,
			"count":259,
			"type":"VEC2"
		},
		{
			"bufferView":132,
			"componentType":5123,
			"count":369,
			"type":"SCALAR"
		},
		{
			"bufferView":133,
			"componentType":5126,
			"count":269,
			"max":[
				0.025302596390247345,
				-1.4266630411148071,
				0.8288425207138062
			],
			"min":[
				0.025302596390247345,
				-1.6764870882034302,
				-0.5331765413284302
			],
			"type":"VEC3"
		},
		{
			"bufferView":134,
			"componentType":5126,
			"count":269,
			"type":"VEC3"
		},
		{
			"bufferView":135,
			"componentType":5126,
			"count":269,
			"type":"VEC2"
		},
		{
			"bufferView":136,
			"componentType":5123,
			"count":423,
			"type":"SCALAR"
		},
		{
			"bufferView":137,
			"componentType":5126,
			"count":258,
			"max":[
				-0.00022747390903532505,
				0.03251654654741287,
				0.26048076152801514
			],
			"min":[
				-0.0006999065517447889,
				-0.032095834612846375,
				-0.2669979929924011
			],
			"type":"VEC3"
		},
		{
			"bufferView":138,
			"componentType":5126,
			"count":258,
			"type":"VEC3"
		},
		{
			"bufferView":139,
			"componentType":5126,
			"count":258,
			"type":"VEC2"
		},
		{
			"bufferView":140,
			"componentType":5123,
			"count":363,
			"type":"SCALAR"
		},
		{
			"bufferView":141,
			"componentType":5126,
			"count":4,
			"max":[
				-2.1606683731079102e-07,
				0.09041507542133331,
				0.47430920600891113
			],
			"min":[
				-2.1606683731079102e-07,
				-0.09041476249694824,
				-0.47430920600891113
			],
			"type":"VEC3"
		},
		{
			"bufferView":142,
			"componentType":5126,
			"count":4,
			"type":"VEC3"
		},
		{
			"bufferView":143,
			"componentType":5126,
			"count":4,
			"type":"VEC2"
		},
		{
			"bufferView":144,
			"componentType":5123,
			"count":6,
			"type":"SCALAR"
		},
		{
			"bufferView":145,
			"componentType":5126,
			"count":208,
			"max":[
				-0.0005583278252743185,
				0.031101398169994354,
				0.2577556371688843
			],
			"min":[
				-0.0013147089630365372,
				-0.031205475330352783,
				-0.2661892771720886
			],
			"type":"VEC3"
		},
		{
			"bufferView":146,
			"componentType":5126,
			"count":208,
			"type":"VEC3"
		},
		{
			"bufferView":147,
			"componentType":5126,
			"count":208,
			"type":"VEC2"
		},
		{
			"bufferView":148,
			"componentType":5123,
			"count":366,
			"type":"SCALAR"
		},
		{
			"bufferView":149,
			"componentType":5126,
			"count":260,
			"max":[
				-3.166496753692627e-08,
				0.05435871332883835,
				0.4279116094112396
			],
			"min":[
				-3.166496753692627e-08,
				-0.05434958636760712,
				-0.4279116094112396
			],
			"type":"VEC3"
		},
		{
			"bufferView":150,
			"componentType":5126,
			"count":260,
			"type":"VEC3"
		},
		{
			"bufferView":151,
			"componentType":5126,
			"count":260,
			"type":"VEC2"
		},
		{
			"bufferView":152,
			"componentType":5123,
			"count":294,
			"type":"SCALAR"
		},
		{
			"bufferView":153,
			"componentType":5126,
			"count":50,
			"max":[
				0.7590875029563904,
				0.8982750773429871,
				0.6835724711418152
			],
			"min":[
				-0.7590789198875427,
				-0.8786856532096863,
				0.639970064163208
			],
			"type":"VEC3"
		},
		{
			"bufferView":154,
			"componentType":5126,
			"count":50,
			"type":"VEC3"
		},
		{
			"bufferView":155,
			"componentType":5126,
			"count":50,
			"type":"VEC2"
		},
		{
			"bufferView":156,
			"componentType":5123,
			"count":72,
			"type":"SCALAR"
		},
		{
			"bufferView":157,
			"componentType":5126,
			"count":154,
			"max":[
				0.9983909130096436,
				-1.3682036399841309,
				0.7964359521865845
			],
			"min":[
				-0.9983906745910645,
				-1.8390312194824219,
				-0.7441438436508179
			],
			"type":"VEC3"
		},
		{
			"bufferView":158,
			"componentType":5126,
			"count":154,
			"type":"VEC3"
		},
		{
			"bufferView":159,
			"componentType":5126,
			"count":154,
			"type":"VEC2"
		},
		{
			"bufferView":160,
			"componentType":5123,
			"count":366,
			"type":"SCALAR"
		},
		{
			"bufferView":161,
			"componentType":5126,
			"count":68,
			"max":[
				0.6194707155227661,
				2.743069648742676,
				0.646225094795227
			],
			"min":[
				-0.6194198131561279,
				-0.08259427547454834,
				-1.126304268836975
			],
			"type":"VEC3"
		},
		{
			"bufferView":162,
			"componentType":5126,
			"count":68,
			"type":"VEC3"
		},
		{
			"bufferView":163,
			"componentType":5126,
			"count":68,
			"type":"VEC2"
		},
		{
			"bufferView":164,
			"componentType":5123,
			"count":96,
			"type":"SCALAR"
		},
		{
			"bufferView":165,
			"componentType":5126,
			"count":48,
			"max":[
				0.09213722497224808,
				0.14989709854125977,
				0.09150545299053192
			],
			"min":[
				-0.08036073297262192,
				0.09320851415395737,
				0.08742016553878784
			],
			"type":"VEC3"
		},
		{
			"bufferView":166,
			"componentType":5126,
			"count":48,
			"type":"VEC3"
		},
		{
			"bufferView":167,
			"componentType":5126,
			"count":48,
			"type":"VEC2"
		},
		{
			"bufferView":168,
			"componentType":5123,
			"count":72,
			"type":"SCALAR"
		},
		{
			"bufferView":169,
			"componentType":5126,
			"count":4,
			"max":[
				0.5730768442153931,
				-0.35427364706993103,
				0.5602669715881348
			],
			"min":[
				-0.4153335392475128,
				-0.35427364706993103,
				-0.30615314841270447
			],
			"type":"VEC3"
		},
		{
			"bufferView":170,
			"componentType":5126,
			"count":4,
			"type":"VEC3"
		},
		{
			"bufferView":171,
			"componentType":5126,
			"count":4,
			"type":"VEC2"
		},
		{
			"bufferView":172,
			"componentType":5126,
			"count":2661,
			"max":[
				0.8844600915908813,
				1.0408847332000732,
				0.13010865449905396
			],
			"min":[
				-0.8821491003036499,
				-0.31909066438674927,
				-0.9455140233039856
			],
			"type":"VEC3"
		},
		{
			"bufferView":173,
			"componentType":5126,
			"count":2661,
			"type":"VEC3"
		},
		{
			"bufferView":174,
			"componentType":5126,
			"count":2661,
			"type":"VEC2"
		},
		{
			"bufferView":175,
			"componentType":5123,
			"count":11310,
			"type":"SCALAR"
		},
		{
			"bufferView":176,
			"componentType":5126,
			"count":130,
			"max":[
				0.331648051738739,
				0.168180912733078,
				-0.04704439640045166
			],
			"min":[
				-0.24335123598575592,
				-0.27025866508483887,
				-0.6287544369697571
			],
			"type":"VEC3"
		},
		{
			"bufferView":177,
			"componentType":5126,
			"count":130,
			"type":"VEC3"
		},
		{
			"bufferView":178,
			"componentType":5126,
			"count":130,
			"type":"VEC2"
		},
		{
			"bufferView":179,
			"componentType":5123,
			"count":174,
			"type":"SCALAR"
		},
		{
			"bufferView":180,
			"componentType":5126,
			"count":2118,
			"max":[
				0.028777606785297394,
				0.194900244474411,
				0.1873779296875
			],
			"min":[
				-0.037321627140045166,
				-0.19533535838127136,
				-0.18358764052391052
			],
			"type":"VEC3"
		},
		{
			"bufferView":181,
			"componentType":5126,
			"count":2118,
			"type":"VEC3"
		},
		{
			"bufferView":182,
			"componentType":5126,
			"count":2118,
			"type":"VEC2"
		},
		{
			"bufferView":183,
			"componentType":5123,
			"count":3528,
			"type":"SCALAR"
		},
		{
			"bufferView":184,
			"componentType":5126,
			"count":2089,
			"max":[
				0.02878677099943161,
				0.19435366988182068,
				0.19027172029018402
			],
			"min":[
				-0.03732168674468994,
				-0.19537460803985596,
				-0.18630145490169525
			],
			"type":"VEC3"
		},
		{
			"bufferView":185,
			"componentType":5126,
			"count":2089,
			"type":"VEC3"
		},
		{
			"bufferView":186,
			"componentType":5126,
			"count":2089,
			"type":"VEC2"
		},
		{
			"bufferView":187,
			"componentType":5123,
			"count":3528,
			"type":"SCALAR"
		},
		{
			"bufferView":188,
			"componentType":5126,
			"count":186,
			"max":[
				0.4195150136947632,
				0.005000917706638575,
				0.022525832056999207
			],
			"min":[
				-0.08245548605918884,
				-0.010001659393310547,
				-0.4653106927871704
			],
			"type":"VEC3"
		},
		{
			"bufferView":189,
			"componentType":5126,
			"count":186,
			"type":"VEC3"
		},
		{
			"bufferView":190,
			"componentType":5126,
			"count":186,
			"type":"VEC2"
		},
		{
			"bufferView":191,
			"componentType":5123,
			"count":330,
			"type":"SCALAR"
		}
	],
	"bufferViews":[
		{
			"buffer":0,
			"byteLength":792,
			"byteOffset":0,
			"target":34962
		},
		{
			"buffer":0,
			"byteLength":792,
			"byteOffset":792,
			"target":34962
		},
		{
			"buffer":0,
			"byteLength":528,
			"byteOffset":1584,
			"target":34962
		},
		{
			"buffer":0,
			"byteLength":180,
			"byteOffset":2112,
			"target":34963
		},
		{
			"buffer":0,
			"byteLength":289176,
			"byteOffset":2292,
			"target":34962
		},
		{
			"buffer":0,
			"byteLength":289176,
			"byteOffset":291468,
			"target":34962
		},
		{
			"buffer":0,
			"byteLength":192784,
			"byteOffset":580644,
			"target":34962
		},
		{
			"buffer":0,
			"byteLength":93816,
			"byteOffset":773428,
			"target":34963
		},
		{
			"buffer":0,
			"byteLength":386076,
			"byteOffset":867244,
			"target":34962
		},
		{
			"buffer":0,
			"byteLength":386076,
			"byteOffset":1253320,
			"target":34962
		},
		{
			"buffer":0,
			"byteLength":257384,
			"byteOffset":1639396,
			"target":34962
		},
		{
			"buffer":0,
			"byteLength":222768,
			"byteOffset":1896780,
			"target":34963
		},
		{
			"buffer":0,
			"byteLength":1591644,
			"byteOffset":2119548,
			"target":34962
		},
		{
			"buffer":0,
			"byteLength":1591644,
			"byteOffset":3711192,
			"target":34962
		},
		{
			"buffer":0,
			"byteLength":1061096,
			"byteOffset":5302836,
			"target":34962
		},
		{
			"buffer":0,
			"byteLength":2209080,
			"byteOffset":6363932,
			"target":34963
		},
		{
			"buffer":0,
			"byteLength":223992,
			"byteOffset":8573012,
			"target":34962
		},
		{
			"buffer":0,
			"byteLength":223992,
			"byteOffset":8797004,
			"target":34962
		},
		{
			"buffer":0,
			"byteLength":149328,
			"byteOffset":9020996,
			"target":34962
		},
		{
			"buffer":0,
			"byteLength":57978,
			"byteOffset":9170324,
			"target":34963
		},
		{
			"buffer":0,
			"byteLength":48,
			"byteOffset":9228304,
			"target":34962
		},
		{
			"buffer":0,
			"byteLength":48,
			"byteOffset":9228352,
			"target":34962
		},
		{
			"buffer":0,
			"byteLength":32,
			"byteOffset":9228400,
			"target":34962
		},
		{
			"buffer":0,
			"byteLength":12,
			"byteOffset":9228432,
			"target":34963
		},
		{
			"buffer":0,
			"byteLength":48,
			"byteOffset":9228444,
			"target":34962
		},
		{
			"buffer":0,
			"byteLength":48,
			"byteOffset":9228492,
			"target":34962
		},
		{
			"buffer":0,
			"byteLength":32,
			"byteOffset":9228540,
			"target":34962
		},
		{
			"buffer":0,
			"byteLength":2964,
			"byteOffset":9228572,
			"target":34962
		},
		{
			"buffer":0,
			"byteLength":2964,
			"byteOffset":9231536,
			"target":34962
		},
		{
			"buffer":0,
			"byteLength":1976,
			"byteOffset":9234500,
			"target":34962
		},
		{
			"buffer":0,
			"byteLength":834,
			"byteOffset":9236476,
			"target":34963
		},
		{
			"buffer":0,
			"byteLength":74904,
			"byteOffset":9237312,
			"target":34962
		},
		{
			"buffer":0,
			"byteLength":74904,
			"byteOffset":9312216,
			"target":34962
		},
		{
			"buffer":0,
			"byteLength":49936,
			"byteOffset":9387120,
			"target":34962
		},
		{
			"buffer":0,
			"byteLength":67620,
			"byteOffset":9437056,
			"target":34963
		},
		{
			"buffer":0,
			"byteLength":6084,
			"byteOffset":9504676,
			"target":34962
		},
		{
			"buffer":0,
			"byteLength":6084,
			"byteOffset":9510760,
			"target":34962
		},
		{
			"buffer":0,
			"byteLength":4056,
			"byteOffset":9516844,
			"target":34962
		},
		{
			"buffer":0,
			"byteLength":5184,
			"byteOffset":9520900,
			"target":34963
		},
		{
			"buffer":0,
			"byteLength":192972,
			"byteOffset":9526084,
			"target":34962
		},
		{
			"buffer":0,
			"byteLength":192972,
			"byteOffset":9719056,
			"target":34962
		},
		{
			"buffer":0,
			"byteLength":128648,
			"byteOffset":9912028,
			"target":34962
		},
		{
			"buffer":0,
			"byteLength":175824,
			"byteOffset":10040676,
			"target":34963
		},
		{
			"buffer":0,
			"byteLength":3360,
			"byteOffset":10216500,
			"target":34962
		},
		{
			"buffer":0,
			"byteLength":3360,
			"byteOffset":10219860,
			"target":34962
		},
		{
			"buffer":0,
			"byteLength":2240,
			"byteOffset":10223220,
			"target":34962
		},
		{
			"buffer":0,
			"byteLength":720,
			"byteOffset":10225460,
			"target":34963
		},
		{
			"buffer":0,
			"byteLength":32652,
			"byteOffset":10226180,
			"target":34962
		},
		{
			"buffer":0,
			"byteLength":32652,
			"byteOffset":10258832,
			"target":34962
		},
		{
			"buffer":0,
			"byteLength":21768,
			"byteOffset":10291484,
			"target":34962
		},
		{
			"buffer":0,
			"byteLength":29088,
			"byteOffset":10313252,
			"target":34963
		},
		{
			"buffer":0,
			"byteLength":3360,
			"byteOffset":10342340,
			"target":34962
		},
		{
			"buffer":0,
			"byteLength":3360,
			"byteOffset":10345700,
			"target":34962
		},
		{
			"buffer":0,
			"byteLength":2240,
			"byteOffset":10349060,
			"target":34962
		},
		{
			"buffer":0,
			"byteLength":720,
			"byteOffset":10351300,
			"target":34963
		},
		{
			"buffer":0,
			"byteLength":5280,
			"byteOffset":10352020,
			"target":34962
		},
		{
			"buffer":0,
			"byteLength":5280,
			"byteOffset":10357300,
			"target":34962
		},
		{
			"buffer":0,
			"byteLength":3520,
			"byteOffset":10362580,
			"target":34962
		},
		{
			"buffer":0,
			"byteLength":1176,
			"byteOffset":10366100,
			"target":34963
		},
		{
			"buffer":0,
			"byteLength":48,
			"byteOffset":10367276,
			"target":34962
		},
		{
			"buffer":0,
			"byteLength":48,
			"byteOffset":10367324,
			"target":34962
		},
		{
			"buffer":0,
			"byteLength":32,
			"byteOffset":10367372,
			"target":34962
		},
		{
			"buffer":0,
			"byteLength":72,
			"byteOffset":10367404,
			"target":34962
		},
		{
			"buffer":0,
			"byteLength":72,
			"byteOffset":10367476,
			"target":34962
		},
		{
			"buffer":0,
			"byteLength":48,
			"byteOffset":10367548,
			"target":34962
		},
		{
			"buffer":0,
			"byteLength":12,
			"byteOffset":10367596,
			"target":34963
		},
		{
			"buffer":0,
			"byteLength":72,
			"byteOffset":10367608,
			"target":34962
		},
		{
			"buffer":0,
			"byteLength":72,
			"byteOffset":10367680,
			"target":34962
		},
		{
			"buffer":0,
			"byteLength":48,
			"byteOffset":10367752,
			"target":34962
		},
		{
			"buffer":0,
			"byteLength":72,
			"byteOffset":10367800,
			"target":34962
		},
		{
			"buffer":0,
			"byteLength":72,
			"byteOffset":10367872,
			"target":34962
		},
		{
			"buffer":0,
			"byteLength":48,
			"byteOffset":10367944,
			"target":34962
		},
		{
			"buffer":0,
			"byteLength":48,
			"byteOffset":10367992,
			"target":34962
		},
		{
			"buffer":0,
			"byteLength":48,
			"byteOffset":10368040,
			"target":34962
		},
		{
			"buffer":0,
			"byteLength":32,
			"byteOffset":10368088,
			"target":34962
		},
		{
			"buffer":0,
			"byteLength":48,
			"byteOffset":10368120,
			"target":34962
		},
		{
			"buffer":0,
			"byteLength":48,
			"byteOffset":10368168,
			"target":34962
		},
		{
			"buffer":0,
			"byteLength":32,
			"byteOffset":10368216,
			"target":34962
		},
		{
			"buffer":0,
			"byteLength":48,
			"byteOffset":10368248,
			"target":34962
		},
		{
			"buffer":0,
			"byteLength":48,
			"byteOffset":10368296,
			"target":34962
		},
		{
			"buffer":0,
			"byteLength":32,
			"byteOffset":10368344,
			"target":34962
		},
		{
			"buffer":0,
			"byteLength":48,
			"byteOffset":10368376,
			"target":34962
		},
		{
			"buffer":0,
			"byteLength":48,
			"byteOffset":10368424,
			"target":34962
		},
		{
			"buffer":0,
			"byteLength":32,
			"byteOffset":10368472,
			"target":34962
		},
		{
			"buffer":0,
			"byteLength":72,
			"byteOffset":10368504,
			"target":34962
		},
		{
			"buffer":0,
			"byteLength":72,
			"byteOffset":10368576,
			"target":34962
		},
		{
			"buffer":0,
			"byteLength":48,
			"byteOffset":10368648,
			"target":34962
		},
		{
			"buffer":0,
			"byteLength":48,
			"byteOffset":10368696,
			"target":34962
		},
		{
			"buffer":0,
			"byteLength":48,
			"byteOffset":10368744,
			"target":34962
		},
		{
			"buffer":0,
			"byteLength":32,
			"byteOffset":10368792,
			"target":34962
		},
		{
			"buffer":0,
			"byteLength":816,
			"byteOffset":10368824,
			"target":34962
		},
		{
			"buffer":0,
			"byteLength":816,
			"byteOffset":10369640,
			"target":34962
		},
		{
			"buffer":0,
			"byteLength":544,
			"byteOffset":10370456,
			"target":34962
		},
		{
			"buffer":0,
			"byteLength":192,
			"byteOffset":10371000,
			"target":34963
		},
		{
			"buffer":0,
			"byteLength":336,
			"byteOffset":10371192,
			"target":34962
		},
		{
			"buffer":0,
			"byteLength":336,
			"byteOffset":10371528,
			"target":34962
		},
		{
			"buffer":0,
			"byteLength":224,
			"byteOffset":10371864,
			"target":34962
		},
		{
			"buffer":0,
			"byteLength":84,
			"byteOffset":10372088,
			"target":34963
		},
		{
			"buffer":0,
			"byteLength":720,
			"byteOffset":10372172,
			"target":34962
		},
		{
			"buffer":0,
			"byteLength":720,
			"byteOffset":10372892,
			"target":34962
		},
		{
			"buffer":0,
			"byteLength":480,
			"byteOffset":10373612,
			"target":34962
		},
		{
			"buffer":0,
			"byteLength":180,
			"byteOffset":10374092,
			"target":34963
		},
		{
			"buffer":0,
			"byteLength":288,
			"byteOffset":10374272,
			"target":34962
		},
		{
			"buffer":0,
			"byteLength":288,
			"byteOffset":10374560,
			"target":34962
		},
		{
			"buffer":0,
			"byteLength":192,
			"byteOffset":10374848,
			"target":34962
		},
		{
			"buffer":0,
			"byteLength":48,
			"byteOffset":10375040,
			"target":34963
		},
		{
			"buffer":0,
			"byteLength":96,
			"byteOffset":10375088,
			"target":34962
		},
		{
			"buffer":0,
			"byteLength":96,
			"byteOffset":10375184,
			"target":34962
		},
		{
			"buffer":0,
			"byteLength":64,
			"byteOffset":10375280,
			"target":34962
		},
		{
			"buffer":0,
			"byteLength":24,
			"byteOffset":10375344,
			"target":34963
		},
		{
			"buffer":0,
			"byteLength":336,
			"byteOffset":10375368,
			"target":34962
		},
		{
			"buffer":0,
			"byteLength":336,
			"byteOffset":10375704,
			"target":34962
		},
		{
			"buffer":0,
			"byteLength":224,
			"byteOffset":10376040,
			"target":34962
		},
		{
			"buffer":0,
			"byteLength":96,
			"byteOffset":10376264,
			"target":34962
		},
		{
			"buffer":0,
			"byteLength":96,
			"byteOffset":10376360,
			"target":34962
		},
		{
			"buffer":0,
			"byteLength":64,
			"byteOffset":10376456,
			"target":34962
		},
		{
			"buffer":0,
			"byteLength":24,
			"byteOffset":10376520,
			"target":34963
		},
		{
			"buffer":0,
			"byteLength":3756,
			"byteOffset":10376544,
			"target":34962
		},
		{
			"buffer":0,
			"byteLength":3756,
			"byteOffset":10380300,
			"target":34962
		},
		{
			"buffer":0,
			"byteLength":2504,
			"byteOffset":10384056,
			"target":34962
		},
		{
			"buffer":0,
			"byteLength":876,
			"byteOffset":10386560,
			"target":34963
		},
		{
			"buffer":0,
			"byteLength":11856,
			"byteOffset":10387436,
			"target":34962
		},
		{
			"buffer":0,
			"byteLength":11856,
			"byteOffset":10399292,
			"target":34962
		},
		{
			"buffer":0,
			"byteLength":7904,
			"byteOffset":10411148,
			"target":34962
		},
		{
			"buffer":0,
			"byteLength":10368,
			"byteOffset":10419052,
			"target":34963
		},
		{
			"buffer":0,
			"byteLength":4248,
			"byteOffset":10429420,
			"target":34962
		},
		{
			"buffer":0,
			"byteLength":4248,
			"byteOffset":10433668,
			"target":34962
		},
		{
			"buffer":0,
			"byteLength":2832,
			"byteOffset":10437916,
			"target":34962
		},
		{
			"buffer":0,
			"byteLength":996,
			"byteOffset":10440748,
			"target":34963
		},
		{
			"buffer":0,
			"byteLength":3108,
			"byteOffset":10441744,
			"target":34962
		},
		{
			"buffer":0,
			"byteLength":3108,
			"byteOffset":10444852,
			"target":34962
		},
		{
			"buffer":0,
			"byteLength":2072,
			"byteOffset":10447960,
			"target":34962
		},
		{
			"buffer":0,
			"byteLength":738,
			"byteOffset":10450032,
			"target":34963
		},
		{
			"buffer":0,
			"byteLength":3228,
			"byteOffset":10450772,
			"target":34962
		},
		{
			"buffer":0,
			"byteLength":3228,
			"byteOffset":10454000,
			"target":34962
		},
		{
			"buffer":0,
			"byteLength":2152,
			"byteOffset":10457228,
			"target":34962
		},
		{
			"buffer":0,
			"byteLength":846,
			"byteOffset":10459380,
			"target":34963
		},
		{
			"buffer":0,
			"byteLength":3096,
			"byteOffset":10460228,
			"target":34962
		},
		{
			"buffer":0,
			"byteLength":3096,
			"byteOffset":10463324,
			"target":34962
		},
		{
			"buffer":0,
			"byteLength":2064,
			"byteOffset":10466420,
			"target":34962
		},
		{
			"buffer":0,
			"byteLength":726,
			"byteOffset":10468484,
			"target":34963
		},
		{
			"buffer":0,
			"byteLength":48,
			"byteOffset":10469212,
			"target":34962
		},
		{
			"buffer":0,
			"byteLength":48,
			"byteOffset":10469260,
			"target":34962
		},
		{
			"buffer":0,
			"byteLength":32,
			"byteOffset":10469308,
			"target":34962
		},
		{
			"buffer":0,
			"byteLength":12,
			"byteOffset":10469340,
			"target":34963
		},
		{
			"buffer":0,
			"byteLength":2496,
			"byteOffset":10469352,
			"target":34962
		},
		{
			"buffer":0,
			"byteLength":2496,
			"byteOffset":10471848,
			"target":34962
		},
		{
			"buffer":0,
			"byteLength":1664,
			"byteOffset":10474344,
			"target":34962
		},
		{
			"buffer":0,
			"byteLength":732,
			"byteOffset":10476008,
			"target":34963
		},
		{
			"buffer":0,
			"byteLength":3120,
			"byteOffset":10476740,
			"target":34962
		},
		{
			"buffer":0,
			"byteLength":3120,
			"byteOffset":10479860,
			"target":34962
		},
		{
			"buffer":0,
			"byteLength":2080,
			"byteOffset":10482980,
			"target":34962
		},
		{
			"buffer":0,
			"byteLength":588,
			"byteOffset":10485060,
			"target":34963
		},
		{
			"buffer":0,
			"byteLength":600,
			"byteOffset":10485648,
			"target":34962
		},
		{
			"buffer":0,
			"byteLength":600,
			"byteOffset":10486248,
			"target":34962
		},
		{
			"buffer":0,
			"byteLength":400,
			"byteOffset":10486848,
			"target":34962
		},
		{
			"buffer":0,
			"byteLength":144,
			"byteOffset":10487248,
			"target":34963
		},
		{
			"buffer":0,
			"byteLength":1848,
			"byteOffset":10487392,
			"target":34962
		},
		{
			"buffer":0,
			"byteLength":1848,
			"byteOffset":10489240,
			"target":34962
		},
		{
			"buffer":0,
			"byteLength":1232,
			"byteOffset":10491088,
			"target":34962
		},
		{
			"buffer":0,
			"byteLength":732,
			"byteOffset":10492320,
			"target":34963
		},
		{
			"buffer":0,
			"byteLength":816,
			"byteOffset":10493052,
			"target":34962
		},
		{
			"buffer":0,
			"byteLength":816,
			"byteOffset":10493868,
			"target":34962
		},
		{
			"buffer":0,
			"byteLength":544,
			"byteOffset":10494684,
			"target":34962
		},
		{
			"buffer":0,
			"byteLength":192,
			"byteOffset":10495228,
			"target":34963
		},
		{
			"buffer":0,
			"byteLength":576,
			"byteOffset":10495420,
			"target":34962
		},
		{
			"buffer":0,
			"byteLength":576,
			"byteOffset":10495996,
			"target":34962
		},
		{
			"buffer":0,
			"byteLength":384,
			"byteOffset":10496572,
			"target":34962
		},
		{
			"buffer":0,
			"byteLength":144,
			"byteOffset":10496956,
			"target":34963
		},
		{
			"buffer":0,
			"byteLength":48,
			"byteOffset":10497100,
			"target":34962
		},
		{
			"buffer":0,
			"byteLength":48,
			"byteOffset":10497148,
			"target":34962
		},
		{
			"buffer":0,
			"byteLength":32,
			"byteOffset":10497196,
			"target":34962
		},
		{
			"buffer":0,
			"byteLength":31932,
			"byteOffset":10497228,
			"target":34962
		},
		{
			"buffer":0,
			"byteLength":31932,
			"byteOffset":10529160,
			"target":34962
		},
		{
			"buffer":0,
			"byteLength":21288,
			"byteOffset":10561092,
			"target":34962
		},
		{
			"buffer":0,
			"byteLength":22620,
			"byteOffset":10582380,
			"target":34963
		},
		{
			"buffer":0,
			"byteLength":1560,
			"byteOffset":10605000,
			"target":34962
		},
		{
			"buffer":0,
			"byteLength":1560,
			"byteOffset":10606560,
			"target":34962
		},
		{
			"buffer":0,
			"byteLength":1040,
			"byteOffset":10608120,
			"target":34962
		},
		{
			"buffer":0,
			"byteLength":348,
			"byteOffset":10609160,
			"target":34963
		},
		{
			"buffer":0,
			"byteLength":25416,
			"byteOffset":10609508,
			"target":34962
		},
		{
			"buffer":0,
			"byteLength":25416,
			"byteOffset":10634924,
			"target":34962
		},
		{
			"buffer":0,
			"byteLength":16944,
			"byteOffset":10660340,
			"target":34962
		},
		{
			"buffer":0,
			"byteLength":7056,
			"byteOffset":10677284,
			"target":34963
		},
		{
			"buffer":0,
			"byteLength":25068,
			"byteOffset":10684340,
			"target":34962
		},
		{
			"buffer":0,
			"byteLength":25068,
			"byteOffset":10709408,
			"target":34962
		},
		{
			"buffer":0,
			"byteLength":16712,
			"byteOffset":10734476,
			"target":34962
		},
		{
			"buffer":0,
			"byteLength":7056,
			"byteOffset":10751188,
			"target":34963
		},
		{
			"buffer":0,
			"byteLength":2232,
			"byteOffset":10758244,
			"target":34962
		},
		{
			"buffer":0,
			"byteLength":2232,
			"byteOffset":10760476,
			"target":34962
		},
		{
			"buffer":0,
			"byteLength":1488,
			"byteOffset":10762708,
			"target":34962
		},
		{
			"buffer":0,
			"byteLength":660,
			"byteOffset":10764196,
			"target":34963
		}
	],
	"buffers":[
		{
			"byteLength":10764856,
			"uri":"ramenShop.bin"
		}
	]
}
